<svg width="117" height="99" viewBox="0 0 117 99" fill="none" xmlns="http://www.w3.org/2000/svg">
<path fill-rule="evenodd" clip-rule="evenodd" d="M102.278 98.0134C110.409 98.0134 117 91.4222 117 83.2916V22.3632C104.727 8.63852 86.8839 0 67.0232 0C30.0073 0 0 30.0073 0 67.0232C0 78.204 2.73776 88.7453 7.57949 98.0134H102.278Z" fill="#279659"/>
<path d="M94.5126 40.8797H89.8356C85.8578 31.4346 77.0988 24.5708 67.015 23.2598C57.0221 21.9276 47.2037 25.7739 40.7803 33.5164C38.892 35.7928 37.3941 38.2676 36.2974 40.8797H31.6982C28.0047 40.8797 25 43.8844 25 47.5779V56.5089C25 60.2024 28.0047 63.2071 31.6982 63.2071H40.8675L39.9082 60.2788C37.115 51.749 38.6871 43.0339 44.2188 36.3684C49.6547 29.8162 57.9554 26.574 66.435 27.686C75.4028 28.8542 83.1868 35.1962 86.271 43.8472L86.2897 43.8973C86.7869 45.2187 87.1358 46.5771 87.3363 47.9748C88.0057 52.1503 87.6242 56.3824 86.2353 60.2135L86.2254 60.2401C82.778 70.0283 73.5055 76.6036 63.149 76.6036C59.4314 76.6036 56.4072 79.6082 56.4072 83.3018C56.4072 86.9953 59.4119 90 63.1054 90C66.799 90 69.8036 86.9953 69.8036 83.3018V80.2906C78.7188 78.1715 86.2071 71.8518 89.8065 63.207H94.5126C98.2062 63.207 101.211 60.2023 101.211 56.5088V47.5778C101.211 43.8843 98.2062 40.8797 94.5126 40.8797Z" fill="#33C072"/>
<path d="M43.0107 67.6726V72.1381H63.1054C74.1862 72.1381 83.2001 63.1242 83.2001 52.0434C83.2001 40.9626 74.1862 31.9487 63.1054 31.9487C52.0246 31.9487 43.0107 40.9626 43.0107 52.0434C43.0107 56.5613 44.5283 60.9264 47.3018 64.4565C46.7632 66.3381 45.0451 67.6726 43.0107 67.6726ZM69.8036 49.8107H74.2691V54.2761H69.8036V49.8107ZM60.8727 49.8107H65.3381V54.2761H60.8727V49.8107ZM51.9417 49.8107H56.4072V54.2761H51.9417V49.8107Z" fill="#33C072"/>
</svg>
